<svg version="1.1" xmlns="http://www.w3.org/2000/svg" xmlns:xlink="http://www.w3.org/1999/xlink" width="34" height="33"><defs/><g><path fill="rgb(149,225,211)" stroke="none" paint-order="stroke fill markers" fill-rule="evenodd" d=" M 31.73963165283203 10.502825856208801 C 30.156341552734375 6.806619763374329 27.19312286376953 3.84309983253479 23.49736785888672 2.2600687742233276 C 24.496780395507812 1.473310947418213 25.754714965820312 0.9999573230743408 27.12560272216797 0.9999573230743408 C 30.369888305664062 0.9999573230743408 32.999969482421875 3.6296828985214233 32.999969482421875 6.873982787132263 C 32.999969482421875 8.244956254959106 32.526641845703125 9.50265109539032 31.73963165283203 10.502825856208801 Z M 31.49999237060547 16.999732732772827 C 31.49999237060547 20.851961255073547 29.987770080566406 24.34290647506714 27.5374755859375 26.93985676765442 C 27.5374755859375 26.93985676765442 29.565597534179688 28.967695236206055 29.565597534179688 28.967695236206055 C 29.833961486816406 29.23654317855835 30.000015258789062 29.60719084739685 30.000015258789062 30.016655325889587 C 30.000015258789062 30.835735321044922 29.335914611816406 31.499699115753174 28.516860961914062 31.499699115753174 C 28.107276916503906 31.499699115753174 27.736488342285156 31.334010243415833 27.468124389648438 31.065162301063538 C 27.468124389648438 31.065162301063538 25.289627075195312 28.886587738990784 25.289627075195312 28.886587738990784 C 22.939125061035156 30.529278874397278 20.084854125976562 31.499699115753174 16.999984741210938 31.499699115753174 C 13.921180725097656 31.499699115753174 11.071830749511719 30.53350794315338 8.723960876464844 28.89670729637146 C 8.723960876464844 28.89670729637146 6.5606842041015625 31.06032907962799 6.5606842041015625 31.06032907962799 C 6.289115905761719 31.33159363269806 5.914207458496094 31.499699115753174 5.499931335449219 31.499699115753174 C 4.671607971191406 31.499699115753174 3.9999542236328125 30.827881336212158 3.9999542236328125 29.99943697452545 C 3.9999542236328125 29.58574342727661 4.167839050292969 29.210262537002563 4.439292907714844 28.938997983932495 C 4.439292907714844 28.938997983932495 6.451164245605469 26.92747163772583 6.451164245605469 26.92747163772583 C 4.0077362060546875 24.331578612327576 2.4999771118164062 20.84531557559967 2.4999771118164062 16.999732732772827 C 2.4999771118164062 8.99184000492096 8.991867065429688 2.4996153116226196 16.999984741210938 2.4996153116226196 C 25.008102416992188 2.4996153116226196 31.49999237060547 8.99184000492096 31.49999237060547 16.999732732772827 Z M 16.999984741210938 5.499535441398621 C 10.648628234863281 5.499535441398621 5.499931335449219 10.64812457561493 5.499931335449219 16.999732732772827 C 5.499931335449219 23.351189851760864 10.648628234863281 28.499778985977173 16.999984741210938 28.499778985977173 C 23.351226806640625 28.499778985977173 28.499923706054688 23.351189851760864 28.499923706054688 16.999732732772827 C 28.499923706054688 10.64812457561493 23.351226806640625 5.499535441398621 16.999984741210938 5.499535441398621 Z M 23.00000762939453 18.49984383583069 C 23.00000762939453 18.49984383583069 16.999984741210938 18.49984383583069 16.999984741210938 18.49984383583069 C 16.171546936035156 18.49984383583069 15.500007629394531 17.828177094459534 15.500007629394531 16.999732732772827 C 15.500007629394531 16.999732732772827 15.500007629394531 8.999542951583862 15.500007629394531 8.999542951583862 C 15.500007629394531 8.171551704406738 16.171546936035156 7.4998849630355835 16.999984741210938 7.4998849630355835 C 17.82842254638672 7.4998849630355835 18.499961853027344 8.171551704406738 18.499961853027344 8.999542951583862 C 18.499961853027344 8.999542951583862 18.499961853027344 15.499470591545105 18.499961853027344 15.499470591545105 C 18.499961853027344 15.499470591545105 23.00000762939453 15.499470591545105 23.00000762939453 15.499470591545105 C 23.828445434570312 15.499470591545105 24.499984741210938 16.17113733291626 24.499984741210938 16.999732732772827 C 24.499984741210938 17.828177094459534 23.828445434570312 18.49984383583069 23.00000762939453 18.49984383583069 Z M 2.2872314453125 10.705368041992188 C 1.4833984375 9.684954166412354 1 8.399921417236328 1 6.999797582626343 C 1 3.685718059539795 3.6862716674804688 0.9999573230743408 6.999908447265625 0.9999573230743408 C 8.400093078613281 0.9999573230743408 9.685035705566406 1.4834305047988892 10.705848693847656 2.2868025302886963 C 6.930900573730469 3.9039682149887085 3.9042816162109375 6.930622100830078 2.2872314453125 10.705368041992188 Z"/></g></svg>